<mxfile host="app.diagrams.net" agent="Mozilla/5.0 (Windows NT 10.0; Win64; x64) AppleWebKit/537.36 (KHTML, like Gecko) Chrome/134.0.0.0 Safari/537.36" version="26.1.1" pages="4">
  <diagram id="C5RBs43oDa-KdzZeNtuy" name="fluxograma">
    <mxGraphModel grid="1" page="1" gridSize="10" guides="1" tooltips="1" connect="1" arrows="1" fold="1" pageScale="1" pageWidth="827" pageHeight="1169" math="0" shadow="0">
      <root>
        <mxCell id="WIyWlLk6GJQsqaUBKTNV-0" />
        <mxCell id="WIyWlLk6GJQsqaUBKTNV-1" parent="WIyWlLk6GJQsqaUBKTNV-0" />
        <mxCell id="V5CXE1ROy1TCAu3K3dNU-1" value="" style="edgeStyle=none;curved=1;rounded=0;orthogonalLoop=1;jettySize=auto;html=1;fontSize=12;startSize=8;endSize=8;" edge="1" parent="WIyWlLk6GJQsqaUBKTNV-1" source="WIyWlLk6GJQsqaUBKTNV-3" target="V5CXE1ROy1TCAu3K3dNU-0">
          <mxGeometry relative="1" as="geometry" />
        </mxCell>
        <mxCell id="WIyWlLk6GJQsqaUBKTNV-3" value="Seleção dos indicadores" style="rounded=1;whiteSpace=wrap;html=1;fontSize=12;glass=0;strokeWidth=1;shadow=0;" vertex="1" parent="WIyWlLk6GJQsqaUBKTNV-1">
          <mxGeometry x="310" y="240" width="160" height="30" as="geometry" />
        </mxCell>
        <mxCell id="V5CXE1ROy1TCAu3K3dNU-3" value="" style="edgeStyle=none;curved=1;rounded=0;orthogonalLoop=1;jettySize=auto;html=1;fontSize=12;startSize=8;endSize=8;" edge="1" parent="WIyWlLk6GJQsqaUBKTNV-1" source="V5CXE1ROy1TCAu3K3dNU-0" target="V5CXE1ROy1TCAu3K3dNU-2">
          <mxGeometry relative="1" as="geometry" />
        </mxCell>
        <mxCell id="V5CXE1ROy1TCAu3K3dNU-0" value="Avaliação dos indicadores" style="whiteSpace=wrap;html=1;rounded=1;glass=0;strokeWidth=1;shadow=0;" vertex="1" parent="WIyWlLk6GJQsqaUBKTNV-1">
          <mxGeometry x="295" y="310" width="190" height="30" as="geometry" />
        </mxCell>
        <mxCell id="V5CXE1ROy1TCAu3K3dNU-5" value="" style="edgeStyle=none;curved=1;rounded=0;orthogonalLoop=1;jettySize=auto;html=1;fontSize=12;startSize=8;endSize=8;" edge="1" parent="WIyWlLk6GJQsqaUBKTNV-1" source="V5CXE1ROy1TCAu3K3dNU-2" target="V5CXE1ROy1TCAu3K3dNU-4">
          <mxGeometry relative="1" as="geometry" />
        </mxCell>
        <mxCell id="V5CXE1ROy1TCAu3K3dNU-2" value="Valor de preferência para cada indicador" style="whiteSpace=wrap;html=1;rounded=1;glass=0;strokeWidth=1;shadow=0;" vertex="1" parent="WIyWlLk6GJQsqaUBKTNV-1">
          <mxGeometry x="275" y="380" width="230" height="30" as="geometry" />
        </mxCell>
        <mxCell id="V5CXE1ROy1TCAu3K3dNU-7" value="" style="edgeStyle=none;curved=1;rounded=0;orthogonalLoop=1;jettySize=auto;html=1;fontSize=12;startSize=8;endSize=8;" edge="1" parent="WIyWlLk6GJQsqaUBKTNV-1" source="V5CXE1ROy1TCAu3K3dNU-4" target="V5CXE1ROy1TCAu3K3dNU-6">
          <mxGeometry relative="1" as="geometry" />
        </mxCell>
        <mxCell id="V5CXE1ROy1TCAu3K3dNU-4" value="Construção da matriz de comparação" style="whiteSpace=wrap;html=1;rounded=1;glass=0;strokeWidth=1;shadow=0;" vertex="1" parent="WIyWlLk6GJQsqaUBKTNV-1">
          <mxGeometry x="280" y="450" width="220" height="30" as="geometry" />
        </mxCell>
        <mxCell id="V5CXE1ROy1TCAu3K3dNU-9" value="" style="edgeStyle=none;curved=1;rounded=0;orthogonalLoop=1;jettySize=auto;html=1;fontSize=12;startSize=8;endSize=8;" edge="1" parent="WIyWlLk6GJQsqaUBKTNV-1" source="V5CXE1ROy1TCAu3K3dNU-6" target="V5CXE1ROy1TCAu3K3dNU-8">
          <mxGeometry relative="1" as="geometry" />
        </mxCell>
        <mxCell id="V5CXE1ROy1TCAu3K3dNU-6" value="Cálculo do vetor de Eigen" style="whiteSpace=wrap;html=1;rounded=1;glass=0;strokeWidth=1;shadow=0;" vertex="1" parent="WIyWlLk6GJQsqaUBKTNV-1">
          <mxGeometry x="315" y="520" width="150" height="30" as="geometry" />
        </mxCell>
        <mxCell id="V5CXE1ROy1TCAu3K3dNU-11" value="" style="edgeStyle=none;curved=1;rounded=0;orthogonalLoop=1;jettySize=auto;html=1;fontSize=12;startSize=8;endSize=8;" edge="1" parent="WIyWlLk6GJQsqaUBKTNV-1" source="V5CXE1ROy1TCAu3K3dNU-8" target="V5CXE1ROy1TCAu3K3dNU-10">
          <mxGeometry relative="1" as="geometry" />
        </mxCell>
        <mxCell id="V5CXE1ROy1TCAu3K3dNU-8" value="Teste de consistência (RC)" style="whiteSpace=wrap;html=1;rounded=1;glass=0;strokeWidth=1;shadow=0;" vertex="1" parent="WIyWlLk6GJQsqaUBKTNV-1">
          <mxGeometry x="310" y="585" width="160" height="25" as="geometry" />
        </mxCell>
        <mxCell id="V5CXE1ROy1TCAu3K3dNU-15" value="" style="edgeStyle=none;curved=1;rounded=0;orthogonalLoop=1;jettySize=auto;html=1;fontSize=12;startSize=8;endSize=8;" edge="1" parent="WIyWlLk6GJQsqaUBKTNV-1" source="V5CXE1ROy1TCAu3K3dNU-10" target="V5CXE1ROy1TCAu3K3dNU-14">
          <mxGeometry relative="1" as="geometry" />
        </mxCell>
        <mxCell id="V5CXE1ROy1TCAu3K3dNU-16" value="Sim" style="edgeLabel;html=1;align=center;verticalAlign=middle;resizable=0;points=[];fontSize=12;" vertex="1" connectable="0" parent="V5CXE1ROy1TCAu3K3dNU-15">
          <mxGeometry x="-0.1538" y="2" relative="1" as="geometry">
            <mxPoint as="offset" />
          </mxGeometry>
        </mxCell>
        <mxCell id="V5CXE1ROy1TCAu3K3dNU-23" style="edgeStyle=orthogonalEdgeStyle;rounded=0;orthogonalLoop=1;jettySize=auto;html=1;entryX=0;entryY=0.5;entryDx=0;entryDy=0;fontSize=12;startSize=8;endSize=8;" edge="1" parent="WIyWlLk6GJQsqaUBKTNV-1" source="V5CXE1ROy1TCAu3K3dNU-10" target="V5CXE1ROy1TCAu3K3dNU-2">
          <mxGeometry relative="1" as="geometry">
            <Array as="points">
              <mxPoint x="255" y="690" />
              <mxPoint x="255" y="395" />
            </Array>
          </mxGeometry>
        </mxCell>
        <mxCell id="V5CXE1ROy1TCAu3K3dNU-24" value="Não" style="edgeLabel;html=1;align=center;verticalAlign=middle;resizable=0;points=[];fontSize=12;" vertex="1" connectable="0" parent="V5CXE1ROy1TCAu3K3dNU-23">
          <mxGeometry x="0.1951" y="1" relative="1" as="geometry">
            <mxPoint as="offset" />
          </mxGeometry>
        </mxCell>
        <mxCell id="V5CXE1ROy1TCAu3K3dNU-10" value="RC&amp;nbsp;≤ 0,1" style="rhombus;whiteSpace=wrap;html=1;rounded=1;glass=0;strokeWidth=1;shadow=0;" vertex="1" parent="WIyWlLk6GJQsqaUBKTNV-1">
          <mxGeometry x="350" y="650" width="80" height="80" as="geometry" />
        </mxCell>
        <mxCell id="V5CXE1ROy1TCAu3K3dNU-18" value="" style="edgeStyle=none;curved=1;rounded=0;orthogonalLoop=1;jettySize=auto;html=1;fontSize=12;startSize=8;endSize=8;" edge="1" parent="WIyWlLk6GJQsqaUBKTNV-1" source="V5CXE1ROy1TCAu3K3dNU-14" target="V5CXE1ROy1TCAu3K3dNU-17">
          <mxGeometry relative="1" as="geometry" />
        </mxCell>
        <mxCell id="V5CXE1ROy1TCAu3K3dNU-14" value="Normalização dos indicadores" style="rounded=1;whiteSpace=wrap;html=1;glass=0;strokeWidth=1;shadow=0;" vertex="1" parent="WIyWlLk6GJQsqaUBKTNV-1">
          <mxGeometry x="300" y="770" width="180" height="30" as="geometry" />
        </mxCell>
        <mxCell id="V5CXE1ROy1TCAu3K3dNU-20" value="" style="edgeStyle=none;curved=1;rounded=0;orthogonalLoop=1;jettySize=auto;html=1;fontSize=12;startSize=8;endSize=8;" edge="1" parent="WIyWlLk6GJQsqaUBKTNV-1" source="V5CXE1ROy1TCAu3K3dNU-17" target="V5CXE1ROy1TCAu3K3dNU-19">
          <mxGeometry relative="1" as="geometry" />
        </mxCell>
        <mxCell id="V5CXE1ROy1TCAu3K3dNU-17" value="Aplicar AHP aos indicadores&amp;nbsp;" style="whiteSpace=wrap;html=1;rounded=1;glass=0;strokeWidth=1;shadow=0;" vertex="1" parent="WIyWlLk6GJQsqaUBKTNV-1">
          <mxGeometry x="290" y="820" width="200" height="30" as="geometry" />
        </mxCell>
        <mxCell id="V5CXE1ROy1TCAu3K3dNU-22" value="" style="edgeStyle=none;curved=1;rounded=0;orthogonalLoop=1;jettySize=auto;html=1;fontSize=12;startSize=8;endSize=8;" edge="1" parent="WIyWlLk6GJQsqaUBKTNV-1" source="V5CXE1ROy1TCAu3K3dNU-19" target="V5CXE1ROy1TCAu3K3dNU-21">
          <mxGeometry relative="1" as="geometry" />
        </mxCell>
        <mxCell id="V5CXE1ROy1TCAu3K3dNU-19" value="Criticidade + Histórico Desastre + (1- Suportabilidade)" style="whiteSpace=wrap;html=1;rounded=1;glass=0;strokeWidth=1;shadow=0;" vertex="1" parent="WIyWlLk6GJQsqaUBKTNV-1">
          <mxGeometry x="225" y="880" width="330" height="30" as="geometry" />
        </mxCell>
        <mxCell id="V5CXE1ROy1TCAu3K3dNU-21" value="Mapa índice com classificação" style="whiteSpace=wrap;html=1;rounded=1;glass=0;strokeWidth=1;shadow=0;" vertex="1" parent="WIyWlLk6GJQsqaUBKTNV-1">
          <mxGeometry x="290" y="940" width="200" height="30" as="geometry" />
        </mxCell>
        <mxCell id="DdQgUOHB06ahk6NWKOD5-1" style="edgeStyle=orthogonalEdgeStyle;rounded=0;orthogonalLoop=1;jettySize=auto;html=1;entryX=0.5;entryY=0;entryDx=0;entryDy=0;" edge="1" parent="WIyWlLk6GJQsqaUBKTNV-1" source="DdQgUOHB06ahk6NWKOD5-0" target="WIyWlLk6GJQsqaUBKTNV-3">
          <mxGeometry relative="1" as="geometry" />
        </mxCell>
        <mxCell id="DdQgUOHB06ahk6NWKOD5-0" value="Objetivo" style="rounded=1;whiteSpace=wrap;html=1;fontSize=12;glass=0;strokeWidth=1;shadow=0;" vertex="1" parent="WIyWlLk6GJQsqaUBKTNV-1">
          <mxGeometry x="310" y="170" width="160" height="30" as="geometry" />
        </mxCell>
      </root>
    </mxGraphModel>
  </diagram>
  <diagram id="0ia3QQBSPF_4Lwmm9x-F" name="hierarquia">
    <mxGraphModel grid="1" page="1" gridSize="10" guides="1" tooltips="1" connect="1" arrows="1" fold="1" pageScale="1" pageWidth="827" pageHeight="1169" math="0" shadow="0">
      <root>
        <mxCell id="0" />
        <mxCell id="1" parent="0" />
        <mxCell id="y4ELog_1p2HQrcjFVLF4-46" style="edgeStyle=orthogonalEdgeStyle;rounded=0;orthogonalLoop=1;jettySize=auto;html=1;exitX=0.5;exitY=1;exitDx=0;exitDy=0;" edge="1" parent="1" source="y4ELog_1p2HQrcjFVLF4-5" target="y4ELog_1p2HQrcjFVLF4-6">
          <mxGeometry relative="1" as="geometry" />
        </mxCell>
        <mxCell id="y4ELog_1p2HQrcjFVLF4-47" style="edgeStyle=orthogonalEdgeStyle;rounded=0;orthogonalLoop=1;jettySize=auto;html=1;entryX=0.5;entryY=0;entryDx=0;entryDy=0;" edge="1" parent="1" source="y4ELog_1p2HQrcjFVLF4-5" target="y4ELog_1p2HQrcjFVLF4-7">
          <mxGeometry relative="1" as="geometry" />
        </mxCell>
        <mxCell id="y4ELog_1p2HQrcjFVLF4-48" style="edgeStyle=orthogonalEdgeStyle;rounded=0;orthogonalLoop=1;jettySize=auto;html=1;exitX=0.5;exitY=1;exitDx=0;exitDy=0;" edge="1" parent="1" source="y4ELog_1p2HQrcjFVLF4-5" target="y4ELog_1p2HQrcjFVLF4-8">
          <mxGeometry relative="1" as="geometry" />
        </mxCell>
        <mxCell id="y4ELog_1p2HQrcjFVLF4-5" value="Objetivo Geral" style="rounded=1;whiteSpace=wrap;html=1;fontSize=12;glass=0;strokeWidth=1;shadow=0;" vertex="1" parent="1">
          <mxGeometry x="795" y="190" width="160" height="30" as="geometry" />
        </mxCell>
        <mxCell id="y4ELog_1p2HQrcjFVLF4-17" style="edgeStyle=orthogonalEdgeStyle;rounded=0;orthogonalLoop=1;jettySize=auto;html=1;exitX=0.5;exitY=1;exitDx=0;exitDy=0;" edge="1" parent="1" source="y4ELog_1p2HQrcjFVLF4-6" target="y4ELog_1p2HQrcjFVLF4-9">
          <mxGeometry relative="1" as="geometry" />
        </mxCell>
        <mxCell id="y4ELog_1p2HQrcjFVLF4-18" style="edgeStyle=orthogonalEdgeStyle;rounded=0;orthogonalLoop=1;jettySize=auto;html=1;exitX=0.5;exitY=1;exitDx=0;exitDy=0;" edge="1" parent="1" source="y4ELog_1p2HQrcjFVLF4-6" target="y4ELog_1p2HQrcjFVLF4-10">
          <mxGeometry relative="1" as="geometry" />
        </mxCell>
        <mxCell id="y4ELog_1p2HQrcjFVLF4-19" style="edgeStyle=orthogonalEdgeStyle;rounded=0;orthogonalLoop=1;jettySize=auto;html=1;exitX=0.5;exitY=1;exitDx=0;exitDy=0;" edge="1" parent="1" source="y4ELog_1p2HQrcjFVLF4-6" target="y4ELog_1p2HQrcjFVLF4-11">
          <mxGeometry relative="1" as="geometry">
            <mxPoint x="300" y="449.9999999999998" as="targetPoint" />
          </mxGeometry>
        </mxCell>
        <mxCell id="y4ELog_1p2HQrcjFVLF4-20" style="edgeStyle=orthogonalEdgeStyle;rounded=0;orthogonalLoop=1;jettySize=auto;html=1;entryX=0.5;entryY=0;entryDx=0;entryDy=0;" edge="1" parent="1" source="y4ELog_1p2HQrcjFVLF4-6" target="y4ELog_1p2HQrcjFVLF4-12">
          <mxGeometry relative="1" as="geometry" />
        </mxCell>
        <mxCell id="y4ELog_1p2HQrcjFVLF4-21" style="edgeStyle=orthogonalEdgeStyle;rounded=0;orthogonalLoop=1;jettySize=auto;html=1;" edge="1" parent="1" source="y4ELog_1p2HQrcjFVLF4-6" target="y4ELog_1p2HQrcjFVLF4-13">
          <mxGeometry relative="1" as="geometry" />
        </mxCell>
        <mxCell id="y4ELog_1p2HQrcjFVLF4-22" style="edgeStyle=orthogonalEdgeStyle;rounded=0;orthogonalLoop=1;jettySize=auto;html=1;entryX=0.5;entryY=0;entryDx=0;entryDy=0;exitX=0.5;exitY=1;exitDx=0;exitDy=0;" edge="1" parent="1" source="y4ELog_1p2HQrcjFVLF4-6" target="y4ELog_1p2HQrcjFVLF4-14">
          <mxGeometry relative="1" as="geometry" />
        </mxCell>
        <mxCell id="y4ELog_1p2HQrcjFVLF4-23" style="edgeStyle=orthogonalEdgeStyle;rounded=0;orthogonalLoop=1;jettySize=auto;html=1;entryX=0.5;entryY=0;entryDx=0;entryDy=0;exitX=0.5;exitY=1;exitDx=0;exitDy=0;" edge="1" parent="1" source="y4ELog_1p2HQrcjFVLF4-6" target="y4ELog_1p2HQrcjFVLF4-15">
          <mxGeometry relative="1" as="geometry" />
        </mxCell>
        <mxCell id="y4ELog_1p2HQrcjFVLF4-24" style="edgeStyle=orthogonalEdgeStyle;rounded=0;orthogonalLoop=1;jettySize=auto;html=1;entryX=0.5;entryY=0;entryDx=0;entryDy=0;exitX=0.5;exitY=1;exitDx=0;exitDy=0;" edge="1" parent="1" source="y4ELog_1p2HQrcjFVLF4-6" target="y4ELog_1p2HQrcjFVLF4-16">
          <mxGeometry relative="1" as="geometry" />
        </mxCell>
        <mxCell id="y4ELog_1p2HQrcjFVLF4-6" value="Criticidade&lt;div&gt;0.627&lt;/div&gt;" style="whiteSpace=wrap;html=1;rounded=1;glass=0;strokeWidth=1;shadow=0;" vertex="1" parent="1">
          <mxGeometry x="270" y="350" width="120" height="45" as="geometry" />
        </mxCell>
        <mxCell id="y4ELog_1p2HQrcjFVLF4-30" style="edgeStyle=orthogonalEdgeStyle;rounded=0;orthogonalLoop=1;jettySize=auto;html=1;entryX=0.5;entryY=0;entryDx=0;entryDy=0;" edge="1" parent="1" source="y4ELog_1p2HQrcjFVLF4-7" target="y4ELog_1p2HQrcjFVLF4-27">
          <mxGeometry relative="1" as="geometry" />
        </mxCell>
        <mxCell id="y4ELog_1p2HQrcjFVLF4-31" style="edgeStyle=orthogonalEdgeStyle;rounded=0;orthogonalLoop=1;jettySize=auto;html=1;entryX=0.5;entryY=0;entryDx=0;entryDy=0;" edge="1" parent="1" source="y4ELog_1p2HQrcjFVLF4-7" target="y4ELog_1p2HQrcjFVLF4-26">
          <mxGeometry relative="1" as="geometry" />
        </mxCell>
        <mxCell id="y4ELog_1p2HQrcjFVLF4-32" style="edgeStyle=orthogonalEdgeStyle;rounded=0;orthogonalLoop=1;jettySize=auto;html=1;entryX=0.5;entryY=0;entryDx=0;entryDy=0;" edge="1" parent="1" source="y4ELog_1p2HQrcjFVLF4-7" target="y4ELog_1p2HQrcjFVLF4-28">
          <mxGeometry relative="1" as="geometry" />
        </mxCell>
        <mxCell id="y4ELog_1p2HQrcjFVLF4-33" style="edgeStyle=orthogonalEdgeStyle;rounded=0;orthogonalLoop=1;jettySize=auto;html=1;exitX=0.5;exitY=1;exitDx=0;exitDy=0;" edge="1" parent="1" source="y4ELog_1p2HQrcjFVLF4-7" target="y4ELog_1p2HQrcjFVLF4-25">
          <mxGeometry relative="1" as="geometry" />
        </mxCell>
        <mxCell id="y4ELog_1p2HQrcjFVLF4-34" style="edgeStyle=orthogonalEdgeStyle;rounded=0;orthogonalLoop=1;jettySize=auto;html=1;entryX=0.5;entryY=0;entryDx=0;entryDy=0;exitX=0.5;exitY=1;exitDx=0;exitDy=0;" edge="1" parent="1" source="y4ELog_1p2HQrcjFVLF4-7" target="y4ELog_1p2HQrcjFVLF4-29">
          <mxGeometry relative="1" as="geometry" />
        </mxCell>
        <mxCell id="y4ELog_1p2HQrcjFVLF4-7" value="Suportabilidade&lt;div&gt;0.28&lt;/div&gt;" style="whiteSpace=wrap;html=1;rounded=1;glass=0;strokeWidth=1;shadow=0;" vertex="1" parent="1">
          <mxGeometry x="815" y="350" width="120" height="45" as="geometry" />
        </mxCell>
        <mxCell id="y4ELog_1p2HQrcjFVLF4-39" style="edgeStyle=orthogonalEdgeStyle;rounded=0;orthogonalLoop=1;jettySize=auto;html=1;" edge="1" parent="1" source="y4ELog_1p2HQrcjFVLF4-8" target="y4ELog_1p2HQrcjFVLF4-36">
          <mxGeometry relative="1" as="geometry" />
        </mxCell>
        <mxCell id="y4ELog_1p2HQrcjFVLF4-40" style="edgeStyle=orthogonalEdgeStyle;rounded=0;orthogonalLoop=1;jettySize=auto;html=1;entryX=0.5;entryY=0;entryDx=0;entryDy=0;exitX=0.5;exitY=1;exitDx=0;exitDy=0;" edge="1" parent="1" source="y4ELog_1p2HQrcjFVLF4-8" target="y4ELog_1p2HQrcjFVLF4-35">
          <mxGeometry relative="1" as="geometry" />
        </mxCell>
        <mxCell id="y4ELog_1p2HQrcjFVLF4-41" style="edgeStyle=orthogonalEdgeStyle;rounded=0;orthogonalLoop=1;jettySize=auto;html=1;" edge="1" parent="1" source="y4ELog_1p2HQrcjFVLF4-8" target="y4ELog_1p2HQrcjFVLF4-37">
          <mxGeometry relative="1" as="geometry" />
        </mxCell>
        <mxCell id="y4ELog_1p2HQrcjFVLF4-42" style="edgeStyle=orthogonalEdgeStyle;rounded=0;orthogonalLoop=1;jettySize=auto;html=1;entryX=0.5;entryY=0;entryDx=0;entryDy=0;exitX=0.5;exitY=1;exitDx=0;exitDy=0;" edge="1" parent="1" source="y4ELog_1p2HQrcjFVLF4-8" target="y4ELog_1p2HQrcjFVLF4-38">
          <mxGeometry relative="1" as="geometry" />
        </mxCell>
        <mxCell id="y4ELog_1p2HQrcjFVLF4-8" value="Histórico de Incidentes&lt;div&gt;0.094&lt;/div&gt;" style="whiteSpace=wrap;html=1;rounded=1;glass=0;strokeWidth=1;shadow=0;" vertex="1" parent="1">
          <mxGeometry x="1200" y="348.75" width="140" height="47.5" as="geometry" />
        </mxCell>
        <mxCell id="y4ELog_1p2HQrcjFVLF4-9" value="Indicador 1&lt;div&gt;L: 0.127&lt;br&gt;G: 0.0796&lt;/div&gt;" style="rounded=1;whiteSpace=wrap;html=1;" vertex="1" parent="1">
          <mxGeometry x="10" y="500" width="70" height="60" as="geometry" />
        </mxCell>
        <mxCell id="y4ELog_1p2HQrcjFVLF4-10" value="Indicador 2&lt;div&gt;L: 0.053&lt;br&gt;G: 0.0332&lt;/div&gt;" style="rounded=1;whiteSpace=wrap;html=1;" vertex="1" parent="1">
          <mxGeometry x="91" y="500" width="70" height="60" as="geometry" />
        </mxCell>
        <mxCell id="y4ELog_1p2HQrcjFVLF4-11" value="Indicador 3&lt;div&gt;L: 0.162&lt;br&gt;G: 0.1016&lt;/div&gt;" style="rounded=1;whiteSpace=wrap;html=1;" vertex="1" parent="1">
          <mxGeometry x="171" y="500" width="70" height="60" as="geometry" />
        </mxCell>
        <mxCell id="y4ELog_1p2HQrcjFVLF4-12" value="Indicador 4&lt;div&gt;L: 0.162&lt;br&gt;G: 0.1016&lt;/div&gt;" style="rounded=1;whiteSpace=wrap;html=1;" vertex="1" parent="1">
          <mxGeometry x="251" y="500" width="70" height="60" as="geometry" />
        </mxCell>
        <mxCell id="y4ELog_1p2HQrcjFVLF4-13" value="Indicador 5&lt;div&gt;L: 0.111&lt;br&gt;G: 0.0696&lt;/div&gt;" style="rounded=1;whiteSpace=wrap;html=1;" vertex="1" parent="1">
          <mxGeometry x="331" y="500" width="70" height="60" as="geometry" />
        </mxCell>
        <mxCell id="y4ELog_1p2HQrcjFVLF4-14" value="Indicador 6&lt;div&gt;L: 0.054&lt;br&gt;G: 0.0339&lt;/div&gt;" style="rounded=1;whiteSpace=wrap;html=1;" vertex="1" parent="1">
          <mxGeometry x="412" y="500" width="70" height="60" as="geometry" />
        </mxCell>
        <mxCell id="y4ELog_1p2HQrcjFVLF4-15" value="Indicador 7&lt;div&gt;L: 0.296&lt;br&gt;G: 0.1856&lt;/div&gt;" style="rounded=1;whiteSpace=wrap;html=1;" vertex="1" parent="1">
          <mxGeometry x="492" y="500" width="70" height="60" as="geometry" />
        </mxCell>
        <mxCell id="y4ELog_1p2HQrcjFVLF4-16" value="Indicador 8&lt;div&gt;L: 0.036&lt;br&gt;G: 0.0226&lt;/div&gt;" style="rounded=1;whiteSpace=wrap;html=1;" vertex="1" parent="1">
          <mxGeometry x="571" y="500" width="70" height="60" as="geometry" />
        </mxCell>
        <mxCell id="y4ELog_1p2HQrcjFVLF4-25" value="Indicador 9&lt;div&gt;L: 0.314&lt;br&gt;G: 0.0879&lt;/div&gt;" style="rounded=1;whiteSpace=wrap;html=1;" vertex="1" parent="1">
          <mxGeometry x="680" y="500" width="70" height="60" as="geometry" />
        </mxCell>
        <mxCell id="y4ELog_1p2HQrcjFVLF4-26" value="Indicador 10&lt;div&gt;L: 0.333&lt;br&gt;G: 0.0932&lt;/div&gt;" style="rounded=1;whiteSpace=wrap;html=1;" vertex="1" parent="1">
          <mxGeometry x="760" y="500" width="70" height="60" as="geometry" />
        </mxCell>
        <mxCell id="y4ELog_1p2HQrcjFVLF4-27" value="Indicador 11&lt;div&gt;L: 0.1&lt;br&gt;G: 0.028&lt;/div&gt;" style="rounded=1;whiteSpace=wrap;html=1;" vertex="1" parent="1">
          <mxGeometry x="840" y="500" width="70" height="60" as="geometry" />
        </mxCell>
        <mxCell id="y4ELog_1p2HQrcjFVLF4-28" value="Indicador 12&lt;div&gt;L: 0.201&lt;br&gt;G: 0.0563&lt;/div&gt;" style="rounded=1;whiteSpace=wrap;html=1;" vertex="1" parent="1">
          <mxGeometry x="920" y="500" width="70" height="60" as="geometry" />
        </mxCell>
        <mxCell id="y4ELog_1p2HQrcjFVLF4-29" value="Indicador 13&lt;div&gt;L: 0.052&lt;br&gt;G: 0.0146&lt;/div&gt;" style="rounded=1;whiteSpace=wrap;html=1;" vertex="1" parent="1">
          <mxGeometry x="1000" y="500" width="70" height="60" as="geometry" />
        </mxCell>
        <mxCell id="y4ELog_1p2HQrcjFVLF4-35" value="Indicador 14&lt;div&gt;L: 0.131&lt;br&gt;G: 0.0123&lt;/div&gt;" style="rounded=1;whiteSpace=wrap;html=1;" vertex="1" parent="1">
          <mxGeometry x="1110" y="500" width="70" height="60" as="geometry" />
        </mxCell>
        <mxCell id="y4ELog_1p2HQrcjFVLF4-36" value="Indicador 15&lt;div&gt;L: 0.353&lt;br&gt;G: 0.0332&lt;/div&gt;" style="rounded=1;whiteSpace=wrap;html=1;" vertex="1" parent="1">
          <mxGeometry x="1190" y="500" width="70" height="60" as="geometry" />
        </mxCell>
        <mxCell id="y4ELog_1p2HQrcjFVLF4-37" value="Indicador 16&lt;div&gt;L: 0.429&lt;br&gt;G: 0.0403&lt;/div&gt;" style="rounded=1;whiteSpace=wrap;html=1;" vertex="1" parent="1">
          <mxGeometry x="1270" y="500" width="70" height="60" as="geometry" />
        </mxCell>
        <mxCell id="y4ELog_1p2HQrcjFVLF4-38" value="Indicador 17&lt;div&gt;L: 0.088&lt;br&gt;G: 0.0083&lt;/div&gt;" style="rounded=1;whiteSpace=wrap;html=1;" vertex="1" parent="1">
          <mxGeometry x="1350" y="500" width="70" height="60" as="geometry" />
        </mxCell>
        <mxCell id="IYx4cIP-5wkZxNLPuKaX-1" value="&lt;h1 style=&quot;margin-top: 0px;&quot;&gt;Nomeclatura&lt;/h1&gt;&lt;p&gt;&lt;font style=&quot;font-size: 14px;&quot;&gt;L = peso local&lt;/font&gt;&lt;/p&gt;&lt;p&gt;&lt;font size=&quot;3&quot;&gt;G = peso global&lt;/font&gt;&lt;/p&gt;" style="text;html=1;whiteSpace=wrap;overflow=hidden;rounded=0;" vertex="1" parent="1">
          <mxGeometry x="40" y="40" width="180" height="120" as="geometry" />
        </mxCell>
      </root>
    </mxGraphModel>
  </diagram>
  <diagram name="fluxo_ahp" id="LDTE4DYUxXLbzg-iN7AR">
    <mxGraphModel dx="926" dy="844" grid="1" gridSize="10" guides="1" tooltips="1" connect="1" arrows="1" fold="1" page="1" pageScale="1" pageWidth="827" pageHeight="1169" math="0" shadow="0">
      <root>
        <mxCell id="im_4JOSDSD2K3EmxoAfT-0" />
        <mxCell id="im_4JOSDSD2K3EmxoAfT-1" parent="im_4JOSDSD2K3EmxoAfT-0" />
        <mxCell id="ATEv_78SRGaMEFlGGXcA-1" value="" style="edgeStyle=none;curved=1;rounded=0;orthogonalLoop=1;jettySize=auto;html=1;fontSize=12;startSize=8;endSize=8;" edge="1" parent="im_4JOSDSD2K3EmxoAfT-1" source="im_4JOSDSD2K3EmxoAfT-3" target="ATEv_78SRGaMEFlGGXcA-0">
          <mxGeometry relative="1" as="geometry" />
        </mxCell>
        <mxCell id="ATEv_78SRGaMEFlGGXcA-4" value="" style="edgeStyle=none;curved=1;rounded=0;orthogonalLoop=1;jettySize=auto;html=1;fontSize=12;startSize=8;endSize=8;" edge="1" parent="im_4JOSDSD2K3EmxoAfT-1" source="im_4JOSDSD2K3EmxoAfT-3" target="ATEv_78SRGaMEFlGGXcA-3">
          <mxGeometry relative="1" as="geometry" />
        </mxCell>
        <mxCell id="ATEv_78SRGaMEFlGGXcA-5" value="" style="edgeStyle=none;curved=1;rounded=0;orthogonalLoop=1;jettySize=auto;html=1;fontSize=12;startSize=8;endSize=8;" edge="1" parent="im_4JOSDSD2K3EmxoAfT-1" source="im_4JOSDSD2K3EmxoAfT-3" target="ATEv_78SRGaMEFlGGXcA-3">
          <mxGeometry relative="1" as="geometry" />
        </mxCell>
        <mxCell id="ATEv_78SRGaMEFlGGXcA-7" value="" style="edgeStyle=none;curved=1;rounded=0;orthogonalLoop=1;jettySize=auto;html=1;fontSize=12;startSize=8;endSize=8;" edge="1" parent="im_4JOSDSD2K3EmxoAfT-1" source="im_4JOSDSD2K3EmxoAfT-3" target="ATEv_78SRGaMEFlGGXcA-6">
          <mxGeometry relative="1" as="geometry" />
        </mxCell>
        <mxCell id="im_4JOSDSD2K3EmxoAfT-3" value="Objetivo Geral" style="rounded=1;whiteSpace=wrap;html=1;fontSize=12;glass=0;strokeWidth=1;shadow=0;" vertex="1" parent="im_4JOSDSD2K3EmxoAfT-1">
          <mxGeometry x="310" y="240" width="160" height="30" as="geometry" />
        </mxCell>
        <mxCell id="ATEv_78SRGaMEFlGGXcA-0" value="Criticidade&lt;div&gt;[8 indicadores]&lt;/div&gt;" style="whiteSpace=wrap;html=1;rounded=1;glass=0;strokeWidth=1;shadow=0;" vertex="1" parent="im_4JOSDSD2K3EmxoAfT-1">
          <mxGeometry x="190" y="350" width="120" height="45" as="geometry" />
        </mxCell>
        <mxCell id="ATEv_78SRGaMEFlGGXcA-3" value="Suportabilidade&lt;div&gt;[5 indicadores]&lt;/div&gt;" style="whiteSpace=wrap;html=1;rounded=1;glass=0;strokeWidth=1;shadow=0;" vertex="1" parent="im_4JOSDSD2K3EmxoAfT-1">
          <mxGeometry x="330" y="350" width="120" height="45" as="geometry" />
        </mxCell>
        <mxCell id="ATEv_78SRGaMEFlGGXcA-6" value="Histórico de Desastre&lt;div&gt;[4 indicadores]&lt;/div&gt;" style="whiteSpace=wrap;html=1;rounded=1;glass=0;strokeWidth=1;shadow=0;" vertex="1" parent="im_4JOSDSD2K3EmxoAfT-1">
          <mxGeometry x="470" y="350" width="120" height="47.5" as="geometry" />
        </mxCell>
      </root>
    </mxGraphModel>
  </diagram>
  <diagram id="cttUL8X6N1gxOZ3X_tKA" name="db_relacional">
    <mxGraphModel grid="1" page="1" gridSize="10" guides="1" tooltips="1" connect="1" arrows="1" fold="1" pageScale="1" pageWidth="827" pageHeight="1169" math="0" shadow="0">
      <root>
        <mxCell id="0" />
        <mxCell id="1" parent="0" />
        <mxCell id="4i7mux38ory7dmZza7O0-1" value="tb_estado" style="shape=table;startSize=30;container=1;collapsible=1;childLayout=tableLayout;fixedRows=1;rowLines=0;fontStyle=1;align=center;resizeLast=1;html=1;" vertex="1" parent="1">
          <mxGeometry x="10" y="40" width="170" height="90" as="geometry" />
        </mxCell>
        <mxCell id="4i7mux38ory7dmZza7O0-2" value="" style="shape=tableRow;horizontal=0;startSize=0;swimlaneHead=0;swimlaneBody=0;fillColor=none;collapsible=0;dropTarget=0;points=[[0,0.5],[1,0.5]];portConstraint=eastwest;top=0;left=0;right=0;bottom=1;" vertex="1" parent="4i7mux38ory7dmZza7O0-1">
          <mxGeometry y="30" width="170" height="30" as="geometry" />
        </mxCell>
        <mxCell id="4i7mux38ory7dmZza7O0-3" value="PK" style="shape=partialRectangle;connectable=0;fillColor=none;top=0;left=0;bottom=0;right=0;fontStyle=1;overflow=hidden;whiteSpace=wrap;html=1;" vertex="1" parent="4i7mux38ory7dmZza7O0-2">
          <mxGeometry width="30" height="30" as="geometry">
            <mxRectangle width="30" height="30" as="alternateBounds" />
          </mxGeometry>
        </mxCell>
        <mxCell id="4i7mux38ory7dmZza7O0-4" value="&lt;u&gt;sigla&amp;nbsp;&lt;/u&gt; &amp;nbsp; &amp;nbsp; &amp;nbsp;CHAR(2)" style="shape=partialRectangle;connectable=0;fillColor=none;top=0;left=0;bottom=0;right=0;align=left;spacingLeft=6;fontStyle=1;overflow=hidden;whiteSpace=wrap;html=1;" vertex="1" parent="4i7mux38ory7dmZza7O0-2">
          <mxGeometry x="30" width="140" height="30" as="geometry">
            <mxRectangle width="140" height="30" as="alternateBounds" />
          </mxGeometry>
        </mxCell>
        <mxCell id="4i7mux38ory7dmZza7O0-5" value="" style="shape=tableRow;horizontal=0;startSize=0;swimlaneHead=0;swimlaneBody=0;fillColor=none;collapsible=0;dropTarget=0;points=[[0,0.5],[1,0.5]];portConstraint=eastwest;top=0;left=0;right=0;bottom=0;" vertex="1" parent="4i7mux38ory7dmZza7O0-1">
          <mxGeometry y="60" width="170" height="30" as="geometry" />
        </mxCell>
        <mxCell id="4i7mux38ory7dmZza7O0-6" value="" style="shape=partialRectangle;connectable=0;fillColor=none;top=0;left=0;bottom=0;right=0;editable=1;overflow=hidden;whiteSpace=wrap;html=1;" vertex="1" parent="4i7mux38ory7dmZza7O0-5">
          <mxGeometry width="30" height="30" as="geometry">
            <mxRectangle width="30" height="30" as="alternateBounds" />
          </mxGeometry>
        </mxCell>
        <mxCell id="4i7mux38ory7dmZza7O0-7" value="nome&amp;nbsp; &amp;nbsp; &amp;nbsp; VARCHAR(50)" style="shape=partialRectangle;connectable=0;fillColor=none;top=0;left=0;bottom=0;right=0;align=left;spacingLeft=6;overflow=hidden;whiteSpace=wrap;html=1;" vertex="1" parent="4i7mux38ory7dmZza7O0-5">
          <mxGeometry x="30" width="140" height="30" as="geometry">
            <mxRectangle width="140" height="30" as="alternateBounds" />
          </mxGeometry>
        </mxCell>
        <mxCell id="rojvt1mHk7av5FfrL8SE-1" style="edgeStyle=orthogonalEdgeStyle;rounded=0;orthogonalLoop=1;jettySize=auto;html=1;" edge="1" parent="1" source="4i7mux38ory7dmZza7O0-14" target="4i7mux38ory7dmZza7O0-30">
          <mxGeometry relative="1" as="geometry" />
        </mxCell>
        <mxCell id="rojvt1mHk7av5FfrL8SE-2" value="[1:1]" style="edgeLabel;html=1;align=center;verticalAlign=middle;resizable=0;points=[];" connectable="0" vertex="1" parent="rojvt1mHk7av5FfrL8SE-1">
          <mxGeometry x="-0.7333" y="1" relative="1" as="geometry">
            <mxPoint as="offset" />
          </mxGeometry>
        </mxCell>
        <mxCell id="rojvt1mHk7av5FfrL8SE-3" value="[1:1]" style="edgeLabel;html=1;align=center;verticalAlign=middle;resizable=0;points=[];" connectable="0" vertex="1" parent="rojvt1mHk7av5FfrL8SE-1">
          <mxGeometry x="0.4444" y="1" relative="1" as="geometry">
            <mxPoint as="offset" />
          </mxGeometry>
        </mxCell>
        <mxCell id="4i7mux38ory7dmZza7O0-14" value="tb_municipio" style="shape=table;startSize=30;container=1;collapsible=1;childLayout=tableLayout;fixedRows=1;rowLines=0;fontStyle=1;align=center;resizeLast=1;html=1;" vertex="1" parent="1">
          <mxGeometry x="279" y="40" width="260" height="150" as="geometry" />
        </mxCell>
        <mxCell id="4i7mux38ory7dmZza7O0-15" value="" style="shape=tableRow;horizontal=0;startSize=0;swimlaneHead=0;swimlaneBody=0;fillColor=none;collapsible=0;dropTarget=0;points=[[0,0.5],[1,0.5]];portConstraint=eastwest;top=0;left=0;right=0;bottom=1;" vertex="1" parent="4i7mux38ory7dmZza7O0-14">
          <mxGeometry y="30" width="260" height="30" as="geometry" />
        </mxCell>
        <mxCell id="4i7mux38ory7dmZza7O0-16" value="PK" style="shape=partialRectangle;connectable=0;fillColor=none;top=0;left=0;bottom=0;right=0;fontStyle=1;overflow=hidden;whiteSpace=wrap;html=1;" vertex="1" parent="4i7mux38ory7dmZza7O0-15">
          <mxGeometry width="30" height="30" as="geometry">
            <mxRectangle width="30" height="30" as="alternateBounds" />
          </mxGeometry>
        </mxCell>
        <mxCell id="4i7mux38ory7dmZza7O0-17" value="&lt;u&gt;id&lt;/u&gt;&amp;nbsp; &amp;nbsp; &amp;nbsp; &amp;nbsp; &amp;nbsp; &amp;nbsp; &amp;nbsp; &amp;nbsp; &amp;nbsp; &amp;nbsp; &amp;nbsp; &lt;span style=&quot;white-space: pre;&quot;&gt;&#x9;&lt;/span&gt;&amp;nbsp; &amp;nbsp; &amp;nbsp;INT" style="shape=partialRectangle;connectable=0;fillColor=none;top=0;left=0;bottom=0;right=0;align=left;spacingLeft=6;fontStyle=1;overflow=hidden;whiteSpace=wrap;html=1;" vertex="1" parent="4i7mux38ory7dmZza7O0-15">
          <mxGeometry x="30" width="230" height="30" as="geometry">
            <mxRectangle width="230" height="30" as="alternateBounds" />
          </mxGeometry>
        </mxCell>
        <mxCell id="4i7mux38ory7dmZza7O0-18" value="" style="shape=tableRow;horizontal=0;startSize=0;swimlaneHead=0;swimlaneBody=0;fillColor=none;collapsible=0;dropTarget=0;points=[[0,0.5],[1,0.5]];portConstraint=eastwest;top=0;left=0;right=0;bottom=0;" vertex="1" parent="4i7mux38ory7dmZza7O0-14">
          <mxGeometry y="60" width="260" height="30" as="geometry" />
        </mxCell>
        <mxCell id="4i7mux38ory7dmZza7O0-19" value="" style="shape=partialRectangle;connectable=0;fillColor=none;top=0;left=0;bottom=0;right=0;editable=1;overflow=hidden;whiteSpace=wrap;html=1;" vertex="1" parent="4i7mux38ory7dmZza7O0-18">
          <mxGeometry width="30" height="30" as="geometry">
            <mxRectangle width="30" height="30" as="alternateBounds" />
          </mxGeometry>
        </mxCell>
        <mxCell id="4i7mux38ory7dmZza7O0-20" value="nome&amp;nbsp; &amp;nbsp; &amp;nbsp; &amp;nbsp; &amp;nbsp; &amp;nbsp; &amp;nbsp; &amp;nbsp; &amp;nbsp; &amp;nbsp; &amp;nbsp; &amp;nbsp; &amp;nbsp; &amp;nbsp; VARCHAR(100)" style="shape=partialRectangle;connectable=0;fillColor=none;top=0;left=0;bottom=0;right=0;align=left;spacingLeft=6;overflow=hidden;whiteSpace=wrap;html=1;" vertex="1" parent="4i7mux38ory7dmZza7O0-18">
          <mxGeometry x="30" width="230" height="30" as="geometry">
            <mxRectangle width="230" height="30" as="alternateBounds" />
          </mxGeometry>
        </mxCell>
        <mxCell id="4i7mux38ory7dmZza7O0-21" value="" style="shape=tableRow;horizontal=0;startSize=0;swimlaneHead=0;swimlaneBody=0;fillColor=none;collapsible=0;dropTarget=0;points=[[0,0.5],[1,0.5]];portConstraint=eastwest;top=0;left=0;right=0;bottom=0;" vertex="1" parent="4i7mux38ory7dmZza7O0-14">
          <mxGeometry y="90" width="260" height="30" as="geometry" />
        </mxCell>
        <mxCell id="4i7mux38ory7dmZza7O0-22" value="" style="shape=partialRectangle;connectable=0;fillColor=none;top=0;left=0;bottom=0;right=0;editable=1;overflow=hidden;whiteSpace=wrap;html=1;" vertex="1" parent="4i7mux38ory7dmZza7O0-21">
          <mxGeometry width="30" height="30" as="geometry">
            <mxRectangle width="30" height="30" as="alternateBounds" />
          </mxGeometry>
        </mxCell>
        <mxCell id="4i7mux38ory7dmZza7O0-23" value="regiao_intermediaria&amp;nbsp; &amp;nbsp; VARCHAR(100)" style="shape=partialRectangle;connectable=0;fillColor=none;top=0;left=0;bottom=0;right=0;align=left;spacingLeft=6;overflow=hidden;whiteSpace=wrap;html=1;" vertex="1" parent="4i7mux38ory7dmZza7O0-21">
          <mxGeometry x="30" width="230" height="30" as="geometry">
            <mxRectangle width="230" height="30" as="alternateBounds" />
          </mxGeometry>
        </mxCell>
        <mxCell id="4i7mux38ory7dmZza7O0-46" value="" style="shape=tableRow;horizontal=0;startSize=0;swimlaneHead=0;swimlaneBody=0;fillColor=none;collapsible=0;dropTarget=0;points=[[0,0.5],[1,0.5]];portConstraint=eastwest;top=0;left=0;right=0;bottom=0;" vertex="1" parent="4i7mux38ory7dmZza7O0-14">
          <mxGeometry y="120" width="260" height="30" as="geometry" />
        </mxCell>
        <mxCell id="4i7mux38ory7dmZza7O0-47" value="FK" style="shape=partialRectangle;connectable=0;fillColor=none;top=0;left=0;bottom=0;right=0;editable=1;overflow=hidden;whiteSpace=wrap;html=1;" vertex="1" parent="4i7mux38ory7dmZza7O0-46">
          <mxGeometry width="30" height="30" as="geometry">
            <mxRectangle width="30" height="30" as="alternateBounds" />
          </mxGeometry>
        </mxCell>
        <mxCell id="4i7mux38ory7dmZza7O0-48" value="estado&amp;nbsp; &amp;nbsp; &lt;span style=&quot;white-space: pre;&quot;&gt;&#x9;&lt;/span&gt;&lt;span style=&quot;white-space: pre;&quot;&gt;&#x9;&lt;/span&gt;&lt;span style=&quot;white-space: pre;&quot;&gt;&#x9;&lt;/span&gt;&amp;nbsp; &amp;nbsp; &amp;nbsp;CHAR(2)" style="shape=partialRectangle;connectable=0;fillColor=none;top=0;left=0;bottom=0;right=0;align=left;spacingLeft=6;overflow=hidden;whiteSpace=wrap;html=1;" vertex="1" parent="4i7mux38ory7dmZza7O0-46">
          <mxGeometry x="30" width="230" height="30" as="geometry">
            <mxRectangle width="230" height="30" as="alternateBounds" />
          </mxGeometry>
        </mxCell>
        <mxCell id="4i7mux38ory7dmZza7O0-27" style="edgeStyle=orthogonalEdgeStyle;rounded=0;orthogonalLoop=1;jettySize=auto;html=1;" edge="1" parent="1" source="4i7mux38ory7dmZza7O0-2" target="4i7mux38ory7dmZza7O0-15">
          <mxGeometry relative="1" as="geometry" />
        </mxCell>
        <mxCell id="4i7mux38ory7dmZza7O0-28" value="[1:n]" style="edgeLabel;html=1;align=center;verticalAlign=middle;resizable=0;points=[];" connectable="0" vertex="1" parent="4i7mux38ory7dmZza7O0-27">
          <mxGeometry x="0.6875" y="2" relative="1" as="geometry">
            <mxPoint x="-13" as="offset" />
          </mxGeometry>
        </mxCell>
        <mxCell id="4i7mux38ory7dmZza7O0-29" value="[1:1}" style="edgeLabel;html=1;align=center;verticalAlign=middle;resizable=0;points=[];" connectable="0" vertex="1" parent="4i7mux38ory7dmZza7O0-27">
          <mxGeometry x="-0.725" relative="1" as="geometry">
            <mxPoint x="4" y="-1" as="offset" />
          </mxGeometry>
        </mxCell>
        <mxCell id="4i7mux38ory7dmZza7O0-30" value="tb_IVSA" style="shape=table;startSize=30;container=1;collapsible=1;childLayout=tableLayout;fixedRows=1;rowLines=0;fontStyle=1;align=center;resizeLast=1;html=1;" vertex="1" parent="1">
          <mxGeometry x="329" y="280" width="160" height="150" as="geometry" />
        </mxCell>
        <mxCell id="4i7mux38ory7dmZza7O0-31" value="" style="shape=tableRow;horizontal=0;startSize=0;swimlaneHead=0;swimlaneBody=0;fillColor=none;collapsible=0;dropTarget=0;points=[[0,0.5],[1,0.5]];portConstraint=eastwest;top=0;left=0;right=0;bottom=1;" vertex="1" parent="4i7mux38ory7dmZza7O0-30">
          <mxGeometry y="30" width="160" height="30" as="geometry" />
        </mxCell>
        <mxCell id="4i7mux38ory7dmZza7O0-32" value="PK" style="shape=partialRectangle;connectable=0;fillColor=none;top=0;left=0;bottom=0;right=0;fontStyle=1;overflow=hidden;whiteSpace=wrap;html=1;" vertex="1" parent="4i7mux38ory7dmZza7O0-31">
          <mxGeometry width="30" height="30" as="geometry">
            <mxRectangle width="30" height="30" as="alternateBounds" />
          </mxGeometry>
        </mxCell>
        <mxCell id="4i7mux38ory7dmZza7O0-33" value="&lt;u&gt;id&lt;/u&gt;&amp;nbsp; &amp;nbsp; &amp;nbsp; &amp;nbsp; &amp;nbsp; &amp;nbsp; &amp;nbsp; &amp;nbsp; &amp;nbsp; INT" style="shape=partialRectangle;connectable=0;fillColor=none;top=0;left=0;bottom=0;right=0;align=left;spacingLeft=6;fontStyle=1;overflow=hidden;whiteSpace=wrap;html=1;" vertex="1" parent="4i7mux38ory7dmZza7O0-31">
          <mxGeometry x="30" width="130" height="30" as="geometry">
            <mxRectangle width="130" height="30" as="alternateBounds" />
          </mxGeometry>
        </mxCell>
        <mxCell id="4i7mux38ory7dmZza7O0-34" value="" style="shape=tableRow;horizontal=0;startSize=0;swimlaneHead=0;swimlaneBody=0;fillColor=none;collapsible=0;dropTarget=0;points=[[0,0.5],[1,0.5]];portConstraint=eastwest;top=0;left=0;right=0;bottom=0;" vertex="1" parent="4i7mux38ory7dmZza7O0-30">
          <mxGeometry y="60" width="160" height="30" as="geometry" />
        </mxCell>
        <mxCell id="4i7mux38ory7dmZza7O0-35" value="FK" style="shape=partialRectangle;connectable=0;fillColor=none;top=0;left=0;bottom=0;right=0;editable=1;overflow=hidden;whiteSpace=wrap;html=1;" vertex="1" parent="4i7mux38ory7dmZza7O0-34">
          <mxGeometry width="30" height="30" as="geometry">
            <mxRectangle width="30" height="30" as="alternateBounds" />
          </mxGeometry>
        </mxCell>
        <mxCell id="4i7mux38ory7dmZza7O0-36" value="municipio&amp;nbsp; &amp;nbsp; &amp;nbsp; INT" style="shape=partialRectangle;connectable=0;fillColor=none;top=0;left=0;bottom=0;right=0;align=left;spacingLeft=6;overflow=hidden;whiteSpace=wrap;html=1;" vertex="1" parent="4i7mux38ory7dmZza7O0-34">
          <mxGeometry x="30" width="130" height="30" as="geometry">
            <mxRectangle width="130" height="30" as="alternateBounds" />
          </mxGeometry>
        </mxCell>
        <mxCell id="4i7mux38ory7dmZza7O0-37" value="" style="shape=tableRow;horizontal=0;startSize=0;swimlaneHead=0;swimlaneBody=0;fillColor=none;collapsible=0;dropTarget=0;points=[[0,0.5],[1,0.5]];portConstraint=eastwest;top=0;left=0;right=0;bottom=0;" vertex="1" parent="4i7mux38ory7dmZza7O0-30">
          <mxGeometry y="90" width="160" height="30" as="geometry" />
        </mxCell>
        <mxCell id="4i7mux38ory7dmZza7O0-38" value="" style="shape=partialRectangle;connectable=0;fillColor=none;top=0;left=0;bottom=0;right=0;editable=1;overflow=hidden;whiteSpace=wrap;html=1;" vertex="1" parent="4i7mux38ory7dmZza7O0-37">
          <mxGeometry width="30" height="30" as="geometry">
            <mxRectangle width="30" height="30" as="alternateBounds" />
          </mxGeometry>
        </mxCell>
        <mxCell id="4i7mux38ory7dmZza7O0-39" value="valor&amp;nbsp; &amp;nbsp;&lt;span style=&quot;white-space: pre;&quot;&gt;&#x9;&lt;/span&gt;&amp;nbsp; &amp;nbsp; &amp;nbsp;FLOAT" style="shape=partialRectangle;connectable=0;fillColor=none;top=0;left=0;bottom=0;right=0;align=left;spacingLeft=6;overflow=hidden;whiteSpace=wrap;html=1;" vertex="1" parent="4i7mux38ory7dmZza7O0-37">
          <mxGeometry x="30" width="130" height="30" as="geometry">
            <mxRectangle width="130" height="30" as="alternateBounds" />
          </mxGeometry>
        </mxCell>
        <mxCell id="4i7mux38ory7dmZza7O0-40" value="" style="shape=tableRow;horizontal=0;startSize=0;swimlaneHead=0;swimlaneBody=0;fillColor=none;collapsible=0;dropTarget=0;points=[[0,0.5],[1,0.5]];portConstraint=eastwest;top=0;left=0;right=0;bottom=0;" vertex="1" parent="4i7mux38ory7dmZza7O0-30">
          <mxGeometry y="120" width="160" height="30" as="geometry" />
        </mxCell>
        <mxCell id="4i7mux38ory7dmZza7O0-41" value="" style="shape=partialRectangle;connectable=0;fillColor=none;top=0;left=0;bottom=0;right=0;editable=1;overflow=hidden;whiteSpace=wrap;html=1;" vertex="1" parent="4i7mux38ory7dmZza7O0-40">
          <mxGeometry width="30" height="30" as="geometry">
            <mxRectangle width="30" height="30" as="alternateBounds" />
          </mxGeometry>
        </mxCell>
        <mxCell id="4i7mux38ory7dmZza7O0-42" value="faixa&amp;nbsp; &amp;nbsp; &amp;nbsp; &amp;nbsp; &amp;nbsp; &amp;nbsp; &amp;nbsp;CHAR(3)" style="shape=partialRectangle;connectable=0;fillColor=none;top=0;left=0;bottom=0;right=0;align=left;spacingLeft=6;overflow=hidden;whiteSpace=wrap;html=1;" vertex="1" parent="4i7mux38ory7dmZza7O0-40">
          <mxGeometry x="30" width="130" height="30" as="geometry">
            <mxRectangle width="130" height="30" as="alternateBounds" />
          </mxGeometry>
        </mxCell>
        <mxCell id="4i7mux38ory7dmZza7O0-52" value="tb_criterio" style="shape=table;startSize=30;container=1;collapsible=1;childLayout=tableLayout;fixedRows=1;rowLines=0;fontStyle=1;align=center;resizeLast=1;html=1;" vertex="1" parent="1">
          <mxGeometry x="25" y="540" width="210" height="120" as="geometry" />
        </mxCell>
        <mxCell id="4i7mux38ory7dmZza7O0-53" value="" style="shape=tableRow;horizontal=0;startSize=0;swimlaneHead=0;swimlaneBody=0;fillColor=none;collapsible=0;dropTarget=0;points=[[0,0.5],[1,0.5]];portConstraint=eastwest;top=0;left=0;right=0;bottom=1;" vertex="1" parent="4i7mux38ory7dmZza7O0-52">
          <mxGeometry y="30" width="210" height="30" as="geometry" />
        </mxCell>
        <mxCell id="4i7mux38ory7dmZza7O0-54" value="PK" style="shape=partialRectangle;connectable=0;fillColor=none;top=0;left=0;bottom=0;right=0;fontStyle=1;overflow=hidden;whiteSpace=wrap;html=1;" vertex="1" parent="4i7mux38ory7dmZza7O0-53">
          <mxGeometry width="30" height="30" as="geometry">
            <mxRectangle width="30" height="30" as="alternateBounds" />
          </mxGeometry>
        </mxCell>
        <mxCell id="4i7mux38ory7dmZza7O0-55" value="&lt;u&gt;id&lt;/u&gt;&amp;nbsp; &amp;nbsp; &amp;nbsp; &amp;nbsp; &amp;nbsp; &amp;nbsp; &amp;nbsp; &amp;nbsp; &amp;nbsp; &amp;nbsp; INT" style="shape=partialRectangle;connectable=0;fillColor=none;top=0;left=0;bottom=0;right=0;align=left;spacingLeft=6;fontStyle=1;overflow=hidden;whiteSpace=wrap;html=1;" vertex="1" parent="4i7mux38ory7dmZza7O0-53">
          <mxGeometry x="30" width="180" height="30" as="geometry">
            <mxRectangle width="180" height="30" as="alternateBounds" />
          </mxGeometry>
        </mxCell>
        <mxCell id="4i7mux38ory7dmZza7O0-59" value="" style="shape=tableRow;horizontal=0;startSize=0;swimlaneHead=0;swimlaneBody=0;fillColor=none;collapsible=0;dropTarget=0;points=[[0,0.5],[1,0.5]];portConstraint=eastwest;top=0;left=0;right=0;bottom=0;" vertex="1" parent="4i7mux38ory7dmZza7O0-52">
          <mxGeometry y="60" width="210" height="30" as="geometry" />
        </mxCell>
        <mxCell id="4i7mux38ory7dmZza7O0-60" value="" style="shape=partialRectangle;connectable=0;fillColor=none;top=0;left=0;bottom=0;right=0;editable=1;overflow=hidden;whiteSpace=wrap;html=1;" vertex="1" parent="4i7mux38ory7dmZza7O0-59">
          <mxGeometry width="30" height="30" as="geometry">
            <mxRectangle width="30" height="30" as="alternateBounds" />
          </mxGeometry>
        </mxCell>
        <mxCell id="4i7mux38ory7dmZza7O0-61" value="nome&amp;nbsp; &amp;nbsp; &amp;nbsp; &amp;nbsp; &amp;nbsp; &amp;nbsp; &amp;nbsp; VARCHAR(15)" style="shape=partialRectangle;connectable=0;fillColor=none;top=0;left=0;bottom=0;right=0;align=left;spacingLeft=6;overflow=hidden;whiteSpace=wrap;html=1;" vertex="1" parent="4i7mux38ory7dmZza7O0-59">
          <mxGeometry x="30" width="180" height="30" as="geometry">
            <mxRectangle width="180" height="30" as="alternateBounds" />
          </mxGeometry>
        </mxCell>
        <mxCell id="4i7mux38ory7dmZza7O0-62" value="" style="shape=tableRow;horizontal=0;startSize=0;swimlaneHead=0;swimlaneBody=0;fillColor=none;collapsible=0;dropTarget=0;points=[[0,0.5],[1,0.5]];portConstraint=eastwest;top=0;left=0;right=0;bottom=0;" vertex="1" parent="4i7mux38ory7dmZza7O0-52">
          <mxGeometry y="90" width="210" height="30" as="geometry" />
        </mxCell>
        <mxCell id="4i7mux38ory7dmZza7O0-63" value="" style="shape=partialRectangle;connectable=0;fillColor=none;top=0;left=0;bottom=0;right=0;editable=1;overflow=hidden;whiteSpace=wrap;html=1;" vertex="1" parent="4i7mux38ory7dmZza7O0-62">
          <mxGeometry width="30" height="30" as="geometry">
            <mxRectangle width="30" height="30" as="alternateBounds" />
          </mxGeometry>
        </mxCell>
        <mxCell id="4i7mux38ory7dmZza7O0-64" value="descricao&amp;nbsp; &amp;nbsp; &amp;nbsp; &amp;nbsp; VARCHAR(100)" style="shape=partialRectangle;connectable=0;fillColor=none;top=0;left=0;bottom=0;right=0;align=left;spacingLeft=6;overflow=hidden;whiteSpace=wrap;html=1;" vertex="1" parent="4i7mux38ory7dmZza7O0-62">
          <mxGeometry x="30" width="180" height="30" as="geometry">
            <mxRectangle width="180" height="30" as="alternateBounds" />
          </mxGeometry>
        </mxCell>
        <mxCell id="rojvt1mHk7av5FfrL8SE-37" style="edgeStyle=orthogonalEdgeStyle;rounded=0;orthogonalLoop=1;jettySize=auto;html=1;entryX=1;entryY=0.5;entryDx=0;entryDy=0;" edge="1" parent="1" source="4i7mux38ory7dmZza7O0-90" target="rojvt1mHk7av5FfrL8SE-27">
          <mxGeometry relative="1" as="geometry" />
        </mxCell>
        <mxCell id="rojvt1mHk7av5FfrL8SE-40" value="[1:1]" style="edgeLabel;html=1;align=center;verticalAlign=middle;resizable=0;points=[];" connectable="0" vertex="1" parent="rojvt1mHk7av5FfrL8SE-37">
          <mxGeometry x="-0.618" y="1" relative="1" as="geometry">
            <mxPoint y="-2" as="offset" />
          </mxGeometry>
        </mxCell>
        <mxCell id="rojvt1mHk7av5FfrL8SE-41" value="[1:1]" style="edgeLabel;html=1;align=center;verticalAlign=middle;resizable=0;points=[];" connectable="0" vertex="1" parent="rojvt1mHk7av5FfrL8SE-37">
          <mxGeometry x="0.5281" y="-1" relative="1" as="geometry">
            <mxPoint x="2" as="offset" />
          </mxGeometry>
        </mxCell>
        <mxCell id="FsqbgxQGHxMjqmPH4s9c-15" style="edgeStyle=orthogonalEdgeStyle;rounded=0;orthogonalLoop=1;jettySize=auto;html=1;" edge="1" parent="1" source="4i7mux38ory7dmZza7O0-90" target="FsqbgxQGHxMjqmPH4s9c-1">
          <mxGeometry relative="1" as="geometry" />
        </mxCell>
        <mxCell id="FsqbgxQGHxMjqmPH4s9c-18" value="[1:1]" style="edgeLabel;html=1;align=center;verticalAlign=middle;resizable=0;points=[];" connectable="0" vertex="1" parent="FsqbgxQGHxMjqmPH4s9c-15">
          <mxGeometry x="-0.7825" y="1" relative="1" as="geometry">
            <mxPoint as="offset" />
          </mxGeometry>
        </mxCell>
        <mxCell id="FsqbgxQGHxMjqmPH4s9c-19" value="[1:n]" style="edgeLabel;html=1;align=center;verticalAlign=middle;resizable=0;points=[];" connectable="0" vertex="1" parent="FsqbgxQGHxMjqmPH4s9c-15">
          <mxGeometry x="0.68" relative="1" as="geometry">
            <mxPoint as="offset" />
          </mxGeometry>
        </mxCell>
        <mxCell id="4i7mux38ory7dmZza7O0-90" value="tb_subcriterio" style="shape=table;startSize=30;container=1;collapsible=1;childLayout=tableLayout;fixedRows=1;rowLines=0;fontStyle=1;align=center;resizeLast=1;html=1;" vertex="1" parent="1">
          <mxGeometry x="610" y="570" width="201" height="120" as="geometry" />
        </mxCell>
        <mxCell id="4i7mux38ory7dmZza7O0-91" value="" style="shape=tableRow;horizontal=0;startSize=0;swimlaneHead=0;swimlaneBody=0;fillColor=none;collapsible=0;dropTarget=0;points=[[0,0.5],[1,0.5]];portConstraint=eastwest;top=0;left=0;right=0;bottom=1;" vertex="1" parent="4i7mux38ory7dmZza7O0-90">
          <mxGeometry y="30" width="201" height="30" as="geometry" />
        </mxCell>
        <mxCell id="4i7mux38ory7dmZza7O0-92" value="PK" style="shape=partialRectangle;connectable=0;fillColor=none;top=0;left=0;bottom=0;right=0;fontStyle=1;overflow=hidden;whiteSpace=wrap;html=1;" vertex="1" parent="4i7mux38ory7dmZza7O0-91">
          <mxGeometry width="30" height="30" as="geometry">
            <mxRectangle width="30" height="30" as="alternateBounds" />
          </mxGeometry>
        </mxCell>
        <mxCell id="4i7mux38ory7dmZza7O0-93" value="&lt;u&gt;id&lt;/u&gt;&amp;nbsp; &amp;nbsp; &amp;nbsp; &amp;nbsp; &amp;nbsp; &amp;nbsp; &amp;nbsp; &amp;nbsp; INT" style="shape=partialRectangle;connectable=0;fillColor=none;top=0;left=0;bottom=0;right=0;align=left;spacingLeft=6;fontStyle=1;overflow=hidden;whiteSpace=wrap;html=1;" vertex="1" parent="4i7mux38ory7dmZza7O0-91">
          <mxGeometry x="30" width="171" height="30" as="geometry">
            <mxRectangle width="171" height="30" as="alternateBounds" />
          </mxGeometry>
        </mxCell>
        <mxCell id="4i7mux38ory7dmZza7O0-94" value="" style="shape=tableRow;horizontal=0;startSize=0;swimlaneHead=0;swimlaneBody=0;fillColor=none;collapsible=0;dropTarget=0;points=[[0,0.5],[1,0.5]];portConstraint=eastwest;top=0;left=0;right=0;bottom=0;" vertex="1" parent="4i7mux38ory7dmZza7O0-90">
          <mxGeometry y="60" width="201" height="30" as="geometry" />
        </mxCell>
        <mxCell id="4i7mux38ory7dmZza7O0-95" value="" style="shape=partialRectangle;connectable=0;fillColor=none;top=0;left=0;bottom=0;right=0;editable=1;overflow=hidden;whiteSpace=wrap;html=1;" vertex="1" parent="4i7mux38ory7dmZza7O0-94">
          <mxGeometry width="30" height="30" as="geometry">
            <mxRectangle width="30" height="30" as="alternateBounds" />
          </mxGeometry>
        </mxCell>
        <mxCell id="4i7mux38ory7dmZza7O0-96" value="nome&amp;nbsp; &amp;nbsp; &amp;nbsp; &amp;nbsp; &amp;nbsp; VARCHAR(15)" style="shape=partialRectangle;connectable=0;fillColor=none;top=0;left=0;bottom=0;right=0;align=left;spacingLeft=6;overflow=hidden;whiteSpace=wrap;html=1;" vertex="1" parent="4i7mux38ory7dmZza7O0-94">
          <mxGeometry x="30" width="171" height="30" as="geometry">
            <mxRectangle width="171" height="30" as="alternateBounds" />
          </mxGeometry>
        </mxCell>
        <mxCell id="4i7mux38ory7dmZza7O0-97" value="" style="shape=tableRow;horizontal=0;startSize=0;swimlaneHead=0;swimlaneBody=0;fillColor=none;collapsible=0;dropTarget=0;points=[[0,0.5],[1,0.5]];portConstraint=eastwest;top=0;left=0;right=0;bottom=0;" vertex="1" parent="4i7mux38ory7dmZza7O0-90">
          <mxGeometry y="90" width="201" height="30" as="geometry" />
        </mxCell>
        <mxCell id="4i7mux38ory7dmZza7O0-98" value="" style="shape=partialRectangle;connectable=0;fillColor=none;top=0;left=0;bottom=0;right=0;editable=1;overflow=hidden;whiteSpace=wrap;html=1;" vertex="1" parent="4i7mux38ory7dmZza7O0-97">
          <mxGeometry width="30" height="30" as="geometry">
            <mxRectangle width="30" height="30" as="alternateBounds" />
          </mxGeometry>
        </mxCell>
        <mxCell id="4i7mux38ory7dmZza7O0-99" value="descricao&amp;nbsp; &amp;nbsp; VARCHAR(100)" style="shape=partialRectangle;connectable=0;fillColor=none;top=0;left=0;bottom=0;right=0;align=left;spacingLeft=6;overflow=hidden;whiteSpace=wrap;html=1;" vertex="1" parent="4i7mux38ory7dmZza7O0-97">
          <mxGeometry x="30" width="171" height="30" as="geometry">
            <mxRectangle width="171" height="30" as="alternateBounds" />
          </mxGeometry>
        </mxCell>
        <mxCell id="rojvt1mHk7av5FfrL8SE-20" style="edgeStyle=orthogonalEdgeStyle;rounded=0;orthogonalLoop=1;jettySize=auto;html=1;" edge="1" parent="1" source="rojvt1mHk7av5FfrL8SE-4" target="4i7mux38ory7dmZza7O0-52">
          <mxGeometry relative="1" as="geometry" />
        </mxCell>
        <mxCell id="rojvt1mHk7av5FfrL8SE-21" value="[1:1]" style="edgeLabel;html=1;align=center;verticalAlign=middle;resizable=0;points=[];" connectable="0" vertex="1" parent="rojvt1mHk7av5FfrL8SE-20">
          <mxGeometry x="0.5636" y="1" relative="1" as="geometry">
            <mxPoint as="offset" />
          </mxGeometry>
        </mxCell>
        <mxCell id="rojvt1mHk7av5FfrL8SE-22" value="[1:n]" style="edgeLabel;html=1;align=center;verticalAlign=middle;resizable=0;points=[];" connectable="0" vertex="1" parent="rojvt1mHk7av5FfrL8SE-20">
          <mxGeometry x="-0.7091" y="-1" relative="1" as="geometry">
            <mxPoint as="offset" />
          </mxGeometry>
        </mxCell>
        <mxCell id="rojvt1mHk7av5FfrL8SE-4" value="tb_IVSA_criterio" style="shape=table;startSize=30;container=1;collapsible=1;childLayout=tableLayout;fixedRows=1;rowLines=0;fontStyle=1;align=center;resizeLast=1;html=1;" vertex="1" parent="1">
          <mxGeometry x="50" y="280" width="160" height="150" as="geometry" />
        </mxCell>
        <mxCell id="rojvt1mHk7av5FfrL8SE-5" value="" style="shape=tableRow;horizontal=0;startSize=0;swimlaneHead=0;swimlaneBody=0;fillColor=none;collapsible=0;dropTarget=0;points=[[0,0.5],[1,0.5]];portConstraint=eastwest;top=0;left=0;right=0;bottom=1;" vertex="1" parent="rojvt1mHk7av5FfrL8SE-4">
          <mxGeometry y="30" width="160" height="30" as="geometry" />
        </mxCell>
        <mxCell id="rojvt1mHk7av5FfrL8SE-6" value="PK" style="shape=partialRectangle;connectable=0;fillColor=none;top=0;left=0;bottom=0;right=0;fontStyle=1;overflow=hidden;whiteSpace=wrap;html=1;" vertex="1" parent="rojvt1mHk7av5FfrL8SE-5">
          <mxGeometry width="30" height="30" as="geometry">
            <mxRectangle width="30" height="30" as="alternateBounds" />
          </mxGeometry>
        </mxCell>
        <mxCell id="rojvt1mHk7av5FfrL8SE-7" value="&lt;u&gt;id&lt;/u&gt;&amp;nbsp; &amp;nbsp; &amp;nbsp; &amp;nbsp; &amp;nbsp; &amp;nbsp; &amp;nbsp; &amp;nbsp; &amp;nbsp; INT" style="shape=partialRectangle;connectable=0;fillColor=none;top=0;left=0;bottom=0;right=0;align=left;spacingLeft=6;fontStyle=1;overflow=hidden;whiteSpace=wrap;html=1;" vertex="1" parent="rojvt1mHk7av5FfrL8SE-5">
          <mxGeometry x="30" width="130" height="30" as="geometry">
            <mxRectangle width="130" height="30" as="alternateBounds" />
          </mxGeometry>
        </mxCell>
        <mxCell id="rojvt1mHk7av5FfrL8SE-8" value="" style="shape=tableRow;horizontal=0;startSize=0;swimlaneHead=0;swimlaneBody=0;fillColor=none;collapsible=0;dropTarget=0;points=[[0,0.5],[1,0.5]];portConstraint=eastwest;top=0;left=0;right=0;bottom=0;" vertex="1" parent="rojvt1mHk7av5FfrL8SE-4">
          <mxGeometry y="60" width="160" height="30" as="geometry" />
        </mxCell>
        <mxCell id="rojvt1mHk7av5FfrL8SE-9" value="FK" style="shape=partialRectangle;connectable=0;fillColor=none;top=0;left=0;bottom=0;right=0;editable=1;overflow=hidden;whiteSpace=wrap;html=1;" vertex="1" parent="rojvt1mHk7av5FfrL8SE-8">
          <mxGeometry width="30" height="30" as="geometry">
            <mxRectangle width="30" height="30" as="alternateBounds" />
          </mxGeometry>
        </mxCell>
        <mxCell id="rojvt1mHk7av5FfrL8SE-10" value="ivsa&amp;nbsp; &amp;nbsp; &amp;nbsp; &amp;nbsp; &amp;nbsp; &amp;nbsp; &amp;nbsp; &amp;nbsp;INT" style="shape=partialRectangle;connectable=0;fillColor=none;top=0;left=0;bottom=0;right=0;align=left;spacingLeft=6;overflow=hidden;whiteSpace=wrap;html=1;" vertex="1" parent="rojvt1mHk7av5FfrL8SE-8">
          <mxGeometry x="30" width="130" height="30" as="geometry">
            <mxRectangle width="130" height="30" as="alternateBounds" />
          </mxGeometry>
        </mxCell>
        <mxCell id="rojvt1mHk7av5FfrL8SE-11" value="" style="shape=tableRow;horizontal=0;startSize=0;swimlaneHead=0;swimlaneBody=0;fillColor=none;collapsible=0;dropTarget=0;points=[[0,0.5],[1,0.5]];portConstraint=eastwest;top=0;left=0;right=0;bottom=0;" vertex="1" parent="rojvt1mHk7av5FfrL8SE-4">
          <mxGeometry y="90" width="160" height="30" as="geometry" />
        </mxCell>
        <mxCell id="rojvt1mHk7av5FfrL8SE-12" value="FK" style="shape=partialRectangle;connectable=0;fillColor=none;top=0;left=0;bottom=0;right=0;editable=1;overflow=hidden;whiteSpace=wrap;html=1;" vertex="1" parent="rojvt1mHk7av5FfrL8SE-11">
          <mxGeometry width="30" height="30" as="geometry">
            <mxRectangle width="30" height="30" as="alternateBounds" />
          </mxGeometry>
        </mxCell>
        <mxCell id="rojvt1mHk7av5FfrL8SE-13" value="criterio&amp;nbsp; &amp;nbsp;&lt;span style=&quot;white-space: pre;&quot;&gt;&#x9;&lt;/span&gt;&amp;nbsp; &amp;nbsp; &amp;nbsp;INT" style="shape=partialRectangle;connectable=0;fillColor=none;top=0;left=0;bottom=0;right=0;align=left;spacingLeft=6;overflow=hidden;whiteSpace=wrap;html=1;" vertex="1" parent="rojvt1mHk7av5FfrL8SE-11">
          <mxGeometry x="30" width="130" height="30" as="geometry">
            <mxRectangle width="130" height="30" as="alternateBounds" />
          </mxGeometry>
        </mxCell>
        <mxCell id="rojvt1mHk7av5FfrL8SE-14" value="" style="shape=tableRow;horizontal=0;startSize=0;swimlaneHead=0;swimlaneBody=0;fillColor=none;collapsible=0;dropTarget=0;points=[[0,0.5],[1,0.5]];portConstraint=eastwest;top=0;left=0;right=0;bottom=0;" vertex="1" parent="rojvt1mHk7av5FfrL8SE-4">
          <mxGeometry y="120" width="160" height="30" as="geometry" />
        </mxCell>
        <mxCell id="rojvt1mHk7av5FfrL8SE-15" value="" style="shape=partialRectangle;connectable=0;fillColor=none;top=0;left=0;bottom=0;right=0;editable=1;overflow=hidden;whiteSpace=wrap;html=1;" vertex="1" parent="rojvt1mHk7av5FfrL8SE-14">
          <mxGeometry width="30" height="30" as="geometry">
            <mxRectangle width="30" height="30" as="alternateBounds" />
          </mxGeometry>
        </mxCell>
        <mxCell id="rojvt1mHk7av5FfrL8SE-16" value="valor&amp;nbsp; &amp;nbsp; &amp;nbsp; &amp;nbsp; &amp;nbsp; &amp;nbsp; &amp;nbsp;FLOAT" style="shape=partialRectangle;connectable=0;fillColor=none;top=0;left=0;bottom=0;right=0;align=left;spacingLeft=6;overflow=hidden;whiteSpace=wrap;html=1;" vertex="1" parent="rojvt1mHk7av5FfrL8SE-14">
          <mxGeometry x="30" width="130" height="30" as="geometry">
            <mxRectangle width="130" height="30" as="alternateBounds" />
          </mxGeometry>
        </mxCell>
        <mxCell id="rojvt1mHk7av5FfrL8SE-17" style="edgeStyle=orthogonalEdgeStyle;rounded=0;orthogonalLoop=1;jettySize=auto;html=1;entryX=1;entryY=0.5;entryDx=0;entryDy=0;" edge="1" parent="1" source="4i7mux38ory7dmZza7O0-34" target="rojvt1mHk7av5FfrL8SE-8">
          <mxGeometry relative="1" as="geometry" />
        </mxCell>
        <mxCell id="rojvt1mHk7av5FfrL8SE-18" value="[1:1]" style="edgeLabel;html=1;align=center;verticalAlign=middle;resizable=0;points=[];" connectable="0" vertex="1" parent="rojvt1mHk7av5FfrL8SE-17">
          <mxGeometry x="-0.7479" y="-1" relative="1" as="geometry">
            <mxPoint as="offset" />
          </mxGeometry>
        </mxCell>
        <mxCell id="rojvt1mHk7av5FfrL8SE-19" value="[1:n]" style="edgeLabel;html=1;align=center;verticalAlign=middle;resizable=0;points=[];" connectable="0" vertex="1" parent="rojvt1mHk7av5FfrL8SE-17">
          <mxGeometry x="0.5966" y="-2" relative="1" as="geometry">
            <mxPoint as="offset" />
          </mxGeometry>
        </mxCell>
        <mxCell id="rojvt1mHk7av5FfrL8SE-23" value="tb_multicriterio" style="shape=table;startSize=30;container=1;collapsible=1;childLayout=tableLayout;fixedRows=1;rowLines=0;fontStyle=1;align=center;resizeLast=1;html=1;" vertex="1" parent="1">
          <mxGeometry x="340" y="555" width="181" height="120" as="geometry" />
        </mxCell>
        <mxCell id="rojvt1mHk7av5FfrL8SE-24" value="" style="shape=tableRow;horizontal=0;startSize=0;swimlaneHead=0;swimlaneBody=0;fillColor=none;collapsible=0;dropTarget=0;points=[[0,0.5],[1,0.5]];portConstraint=eastwest;top=0;left=0;right=0;bottom=1;" vertex="1" parent="rojvt1mHk7av5FfrL8SE-23">
          <mxGeometry y="30" width="181" height="30" as="geometry" />
        </mxCell>
        <mxCell id="rojvt1mHk7av5FfrL8SE-25" value="PK" style="shape=partialRectangle;connectable=0;fillColor=none;top=0;left=0;bottom=0;right=0;fontStyle=1;overflow=hidden;whiteSpace=wrap;html=1;" vertex="1" parent="rojvt1mHk7av5FfrL8SE-24">
          <mxGeometry width="30" height="30" as="geometry">
            <mxRectangle width="30" height="30" as="alternateBounds" />
          </mxGeometry>
        </mxCell>
        <mxCell id="rojvt1mHk7av5FfrL8SE-26" value="&lt;u&gt;id&lt;/u&gt;&amp;nbsp; &amp;nbsp; &amp;nbsp; &amp;nbsp; &amp;nbsp; &amp;nbsp; &amp;nbsp; &amp;nbsp; &amp;nbsp; INT" style="shape=partialRectangle;connectable=0;fillColor=none;top=0;left=0;bottom=0;right=0;align=left;spacingLeft=6;fontStyle=1;overflow=hidden;whiteSpace=wrap;html=1;" vertex="1" parent="rojvt1mHk7av5FfrL8SE-24">
          <mxGeometry x="30" width="151" height="30" as="geometry">
            <mxRectangle width="151" height="30" as="alternateBounds" />
          </mxGeometry>
        </mxCell>
        <mxCell id="rojvt1mHk7av5FfrL8SE-27" value="" style="shape=tableRow;horizontal=0;startSize=0;swimlaneHead=0;swimlaneBody=0;fillColor=none;collapsible=0;dropTarget=0;points=[[0,0.5],[1,0.5]];portConstraint=eastwest;top=0;left=0;right=0;bottom=0;" vertex="1" parent="rojvt1mHk7av5FfrL8SE-23">
          <mxGeometry y="60" width="181" height="30" as="geometry" />
        </mxCell>
        <mxCell id="rojvt1mHk7av5FfrL8SE-28" value="FK" style="shape=partialRectangle;connectable=0;fillColor=none;top=0;left=0;bottom=0;right=0;editable=1;overflow=hidden;whiteSpace=wrap;html=1;" vertex="1" parent="rojvt1mHk7av5FfrL8SE-27">
          <mxGeometry width="30" height="30" as="geometry">
            <mxRectangle width="30" height="30" as="alternateBounds" />
          </mxGeometry>
        </mxCell>
        <mxCell id="rojvt1mHk7av5FfrL8SE-29" value="criterio&amp;nbsp; &amp;nbsp; &amp;nbsp; &lt;span style=&quot;white-space: pre;&quot;&gt;&#x9;&lt;/span&gt;&amp;nbsp; &amp;nbsp;INT" style="shape=partialRectangle;connectable=0;fillColor=none;top=0;left=0;bottom=0;right=0;align=left;spacingLeft=6;overflow=hidden;whiteSpace=wrap;html=1;" vertex="1" parent="rojvt1mHk7av5FfrL8SE-27">
          <mxGeometry x="30" width="151" height="30" as="geometry">
            <mxRectangle width="151" height="30" as="alternateBounds" />
          </mxGeometry>
        </mxCell>
        <mxCell id="rojvt1mHk7av5FfrL8SE-30" value="" style="shape=tableRow;horizontal=0;startSize=0;swimlaneHead=0;swimlaneBody=0;fillColor=none;collapsible=0;dropTarget=0;points=[[0,0.5],[1,0.5]];portConstraint=eastwest;top=0;left=0;right=0;bottom=0;" vertex="1" parent="rojvt1mHk7av5FfrL8SE-23">
          <mxGeometry y="90" width="181" height="30" as="geometry" />
        </mxCell>
        <mxCell id="rojvt1mHk7av5FfrL8SE-31" value="FK" style="shape=partialRectangle;connectable=0;fillColor=none;top=0;left=0;bottom=0;right=0;editable=1;overflow=hidden;whiteSpace=wrap;html=1;" vertex="1" parent="rojvt1mHk7av5FfrL8SE-30">
          <mxGeometry width="30" height="30" as="geometry">
            <mxRectangle width="30" height="30" as="alternateBounds" />
          </mxGeometry>
        </mxCell>
        <mxCell id="rojvt1mHk7av5FfrL8SE-32" value="subcriterio&amp;nbsp; &amp;nbsp;&lt;span style=&quot;white-space: pre;&quot;&gt;&#x9;&lt;/span&gt;&amp;nbsp; &amp;nbsp;INT" style="shape=partialRectangle;connectable=0;fillColor=none;top=0;left=0;bottom=0;right=0;align=left;spacingLeft=6;overflow=hidden;whiteSpace=wrap;html=1;" vertex="1" parent="rojvt1mHk7av5FfrL8SE-30">
          <mxGeometry x="30" width="151" height="30" as="geometry">
            <mxRectangle width="151" height="30" as="alternateBounds" />
          </mxGeometry>
        </mxCell>
        <mxCell id="rojvt1mHk7av5FfrL8SE-36" style="edgeStyle=orthogonalEdgeStyle;rounded=0;orthogonalLoop=1;jettySize=auto;html=1;" edge="1" parent="1" source="4i7mux38ory7dmZza7O0-59" target="rojvt1mHk7av5FfrL8SE-23">
          <mxGeometry relative="1" as="geometry" />
        </mxCell>
        <mxCell id="rojvt1mHk7av5FfrL8SE-38" value="[1:n]" style="edgeLabel;html=1;align=center;verticalAlign=middle;resizable=0;points=[];" connectable="0" vertex="1" parent="rojvt1mHk7av5FfrL8SE-36">
          <mxGeometry x="0.5429" y="1" relative="1" as="geometry">
            <mxPoint as="offset" />
          </mxGeometry>
        </mxCell>
        <mxCell id="rojvt1mHk7av5FfrL8SE-39" value="[1:1]" style="edgeLabel;html=1;align=center;verticalAlign=middle;resizable=0;points=[];" connectable="0" vertex="1" parent="rojvt1mHk7av5FfrL8SE-36">
          <mxGeometry x="-0.6952" y="2" relative="1" as="geometry">
            <mxPoint as="offset" />
          </mxGeometry>
        </mxCell>
        <mxCell id="FsqbgxQGHxMjqmPH4s9c-1" value="tb_indicador" style="shape=table;startSize=30;container=1;collapsible=1;childLayout=tableLayout;fixedRows=1;rowLines=0;fontStyle=1;align=center;resizeLast=1;html=1;" vertex="1" parent="1">
          <mxGeometry x="600" y="280" width="181" height="150" as="geometry" />
        </mxCell>
        <mxCell id="FsqbgxQGHxMjqmPH4s9c-2" value="" style="shape=tableRow;horizontal=0;startSize=0;swimlaneHead=0;swimlaneBody=0;fillColor=none;collapsible=0;dropTarget=0;points=[[0,0.5],[1,0.5]];portConstraint=eastwest;top=0;left=0;right=0;bottom=1;" vertex="1" parent="FsqbgxQGHxMjqmPH4s9c-1">
          <mxGeometry y="30" width="181" height="30" as="geometry" />
        </mxCell>
        <mxCell id="FsqbgxQGHxMjqmPH4s9c-3" value="PK" style="shape=partialRectangle;connectable=0;fillColor=none;top=0;left=0;bottom=0;right=0;fontStyle=1;overflow=hidden;whiteSpace=wrap;html=1;" vertex="1" parent="FsqbgxQGHxMjqmPH4s9c-2">
          <mxGeometry width="30" height="30" as="geometry">
            <mxRectangle width="30" height="30" as="alternateBounds" />
          </mxGeometry>
        </mxCell>
        <mxCell id="FsqbgxQGHxMjqmPH4s9c-4" value="&lt;u&gt;id&lt;/u&gt;&amp;nbsp; &amp;nbsp; &amp;nbsp; &amp;nbsp; &amp;nbsp; &amp;nbsp; &amp;nbsp; &amp;nbsp; &amp;nbsp; INT" style="shape=partialRectangle;connectable=0;fillColor=none;top=0;left=0;bottom=0;right=0;align=left;spacingLeft=6;fontStyle=1;overflow=hidden;whiteSpace=wrap;html=1;" vertex="1" parent="FsqbgxQGHxMjqmPH4s9c-2">
          <mxGeometry x="30" width="151" height="30" as="geometry">
            <mxRectangle width="151" height="30" as="alternateBounds" />
          </mxGeometry>
        </mxCell>
        <mxCell id="FsqbgxQGHxMjqmPH4s9c-5" value="" style="shape=tableRow;horizontal=0;startSize=0;swimlaneHead=0;swimlaneBody=0;fillColor=none;collapsible=0;dropTarget=0;points=[[0,0.5],[1,0.5]];portConstraint=eastwest;top=0;left=0;right=0;bottom=0;" vertex="1" parent="FsqbgxQGHxMjqmPH4s9c-1">
          <mxGeometry y="60" width="181" height="30" as="geometry" />
        </mxCell>
        <mxCell id="FsqbgxQGHxMjqmPH4s9c-6" value="FK" style="shape=partialRectangle;connectable=0;fillColor=none;top=0;left=0;bottom=0;right=0;editable=1;overflow=hidden;whiteSpace=wrap;html=1;" vertex="1" parent="FsqbgxQGHxMjqmPH4s9c-5">
          <mxGeometry width="30" height="30" as="geometry">
            <mxRectangle width="30" height="30" as="alternateBounds" />
          </mxGeometry>
        </mxCell>
        <mxCell id="FsqbgxQGHxMjqmPH4s9c-7" value="municipio&amp;nbsp; &amp;nbsp; &amp;nbsp;&amp;nbsp;&lt;span style=&quot;white-space: pre;&quot;&gt;&#x9;&lt;/span&gt;&amp;nbsp; &amp;nbsp;INT" style="shape=partialRectangle;connectable=0;fillColor=none;top=0;left=0;bottom=0;right=0;align=left;spacingLeft=6;overflow=hidden;whiteSpace=wrap;html=1;" vertex="1" parent="FsqbgxQGHxMjqmPH4s9c-5">
          <mxGeometry x="30" width="151" height="30" as="geometry">
            <mxRectangle width="151" height="30" as="alternateBounds" />
          </mxGeometry>
        </mxCell>
        <mxCell id="FsqbgxQGHxMjqmPH4s9c-8" value="" style="shape=tableRow;horizontal=0;startSize=0;swimlaneHead=0;swimlaneBody=0;fillColor=none;collapsible=0;dropTarget=0;points=[[0,0.5],[1,0.5]];portConstraint=eastwest;top=0;left=0;right=0;bottom=0;" vertex="1" parent="FsqbgxQGHxMjqmPH4s9c-1">
          <mxGeometry y="90" width="181" height="30" as="geometry" />
        </mxCell>
        <mxCell id="FsqbgxQGHxMjqmPH4s9c-9" value="FK" style="shape=partialRectangle;connectable=0;fillColor=none;top=0;left=0;bottom=0;right=0;editable=1;overflow=hidden;whiteSpace=wrap;html=1;" vertex="1" parent="FsqbgxQGHxMjqmPH4s9c-8">
          <mxGeometry width="30" height="30" as="geometry">
            <mxRectangle width="30" height="30" as="alternateBounds" />
          </mxGeometry>
        </mxCell>
        <mxCell id="FsqbgxQGHxMjqmPH4s9c-10" value="subcriterio&amp;nbsp; &amp;nbsp;&lt;span style=&quot;white-space: pre;&quot;&gt;&#x9;&lt;/span&gt;&amp;nbsp; &amp;nbsp;INT" style="shape=partialRectangle;connectable=0;fillColor=none;top=0;left=0;bottom=0;right=0;align=left;spacingLeft=6;overflow=hidden;whiteSpace=wrap;html=1;" vertex="1" parent="FsqbgxQGHxMjqmPH4s9c-8">
          <mxGeometry x="30" width="151" height="30" as="geometry">
            <mxRectangle width="151" height="30" as="alternateBounds" />
          </mxGeometry>
        </mxCell>
        <mxCell id="FsqbgxQGHxMjqmPH4s9c-11" value="" style="shape=tableRow;horizontal=0;startSize=0;swimlaneHead=0;swimlaneBody=0;fillColor=none;collapsible=0;dropTarget=0;points=[[0,0.5],[1,0.5]];portConstraint=eastwest;top=0;left=0;right=0;bottom=0;" vertex="1" parent="FsqbgxQGHxMjqmPH4s9c-1">
          <mxGeometry y="120" width="181" height="30" as="geometry" />
        </mxCell>
        <mxCell id="FsqbgxQGHxMjqmPH4s9c-12" value="" style="shape=partialRectangle;connectable=0;fillColor=none;top=0;left=0;bottom=0;right=0;editable=1;overflow=hidden;whiteSpace=wrap;html=1;" vertex="1" parent="FsqbgxQGHxMjqmPH4s9c-11">
          <mxGeometry width="30" height="30" as="geometry">
            <mxRectangle width="30" height="30" as="alternateBounds" />
          </mxGeometry>
        </mxCell>
        <mxCell id="FsqbgxQGHxMjqmPH4s9c-13" value="valor&amp;nbsp; &amp;nbsp; &amp;nbsp; &amp;nbsp; &amp;nbsp;&lt;span style=&quot;white-space: pre;&quot;&gt;&#x9;&lt;/span&gt;&amp;nbsp; &amp;nbsp;FLOAT" style="shape=partialRectangle;connectable=0;fillColor=none;top=0;left=0;bottom=0;right=0;align=left;spacingLeft=6;overflow=hidden;whiteSpace=wrap;html=1;" vertex="1" parent="FsqbgxQGHxMjqmPH4s9c-11">
          <mxGeometry x="30" width="151" height="30" as="geometry">
            <mxRectangle width="151" height="30" as="alternateBounds" />
          </mxGeometry>
        </mxCell>
        <mxCell id="FsqbgxQGHxMjqmPH4s9c-14" style="edgeStyle=orthogonalEdgeStyle;rounded=0;orthogonalLoop=1;jettySize=auto;html=1;" edge="1" parent="1" source="4i7mux38ory7dmZza7O0-18" target="FsqbgxQGHxMjqmPH4s9c-1">
          <mxGeometry relative="1" as="geometry" />
        </mxCell>
        <mxCell id="FsqbgxQGHxMjqmPH4s9c-16" value="[1:n]" style="edgeLabel;html=1;align=center;verticalAlign=middle;resizable=0;points=[];" connectable="0" vertex="1" parent="FsqbgxQGHxMjqmPH4s9c-14">
          <mxGeometry x="0.8104" y="1" relative="1" as="geometry">
            <mxPoint y="1" as="offset" />
          </mxGeometry>
        </mxCell>
        <mxCell id="FsqbgxQGHxMjqmPH4s9c-17" value="[1:1]" style="edgeLabel;html=1;align=center;verticalAlign=middle;resizable=0;points=[];" connectable="0" vertex="1" parent="FsqbgxQGHxMjqmPH4s9c-14">
          <mxGeometry x="-0.8774" y="3" relative="1" as="geometry">
            <mxPoint as="offset" />
          </mxGeometry>
        </mxCell>
      </root>
    </mxGraphModel>
  </diagram>
</mxfile>
